# xmcd
#
# Track frame offsets:
#	150
#	12685
#	25230
#	40880
#	51447
#	63460
#	77770
#	87972
#	100085
#	112940
#	125035
#	139535
#	152072
#	163682
#	177875
#	191640
#	203827
#	217050
#	229870
#	243695
#	256455
#	267545
#	280345
#	293780
#	305702
#
# Disc length: 4228 seconds
#
# Revision: 2
# Processed by: cddbd v1.4PL0 Copyright (c) Steve Scherf et al.
# Submitted via: audiograbber 1.82.00
#
DISCID=7c108219
DTITLE=Blues - Grooves From The Blues 50's
DYEAR=1997
DGENRE=Blues
TTITLE0=Bo Diddley - I'm A Man
TTITLE1=Jimmy Rogers - Walking By Myself
TTITLE2=Eddie Boyd - 24 Hours
TTITLE3=J.B. Lenoir - Mama, Talk To Your Daughter
TTITLE4=Clarence "Gatemouth" Brown - Midnight Hour
TTITLE5=Lowell Fulson - Reconsider Baby
TTITLE6=Elmore James - I Can't Hold Out
TTITLE7=Little Walter - My Babe
TTITLE8=Muddy Waters - I Just Want To Make Love To You
TTITLE9=Memphis Slim - Mother Earth
TTITLE10=Sonny Parker - Jealous Blues
TTITLE11=John Lee Hooker - Leave My Wife Alone
TTITLE12=Sonny Boy Williamson - Don't Start Me Talkin'
TTITLE13=Willie Mabon - I Don't Know
TTITLE14=Howlin' Wolf - Smokestack Lightnin'
TTITLE15=Larry Davis - Texas Flood
TTITLE16=Little Richard - Directly From My Heart To You
TTITLE17=Jimmy Witherspoon - When The Lights Go Out
TTITLE18=Chuck Berry - Wee Wee Hours
TTITLE19=Rosco Gordon - Keep On Doggin'
TTITLE20=Sugarboy Crawford - Jock-O-Mo
TTITLE21=Big Mama Thornton - Hound Dog
TTITLE22=Johnny Ace - The Clock
TTITLE23=Junior Parker - Next Time You See Me
TTITLE24=Bobby Bland - I Smell Trouble
EXTD=Universal Music - UMD 80383
EXTT0=
EXTT1=
EXTT2=
EXTT3=
EXTT4=
EXTT5=
EXTT6=
EXTT7=
EXTT8=
EXTT9=
EXTT10=
EXTT11=
EXTT12=
EXTT13=
EXTT14=
EXTT15=
EXTT16=
EXTT17=
EXTT18=
EXTT19=
EXTT20=
EXTT21=
EXTT22=
EXTT23=
EXTT24=
PLAYORDER=
